<?xml version="1.0" standalone="no"?>
<!DOCTYPE svg PUBLIC "-//W3C//DTD SVG 20010904//EN"
 "http://www.w3.org/TR/2001/REC-SVG-20010904/DTD/svg10.dtd">
<svg version="1.0" xmlns="http://www.w3.org/2000/svg"
 width="300.000000pt" height="300.000000pt" viewBox="0 180.000000 500.000000 100.000000"
 preserveAspectRatio="xMidYMid meet">

<g transform="translate(0.000000,500.000000) scale(0.100000,-0.100000)"
fill="#000000" stroke="none">
<path d="M1336 3119 c-163 -56 -288 -206 -350 -421 -27 -97 -43 -193 -26 -165
14 21 56 22 64 1 3 -8 -6 -43 -20 -77 -17 -40 -27 -80 -27 -115 0 -52 11 -80
21 -53 10 30 50 61 69 54 27 -10 33 -23 33 -73 0 -74 -42 -144 -109 -187 l-34
-21 55 -7 c97 -12 181 19 349 130 60 39 74 42 83 19 4 -10 -5 -27 -23 -45 -36
-36 -31 -36 60 -3 173 62 325 179 397 306 140 244 21 560 -248 655 -86 30
-210 31 -294 2z m229 -94 c64 -17 85 -30 85 -52 0 -12 -13 -14 -67 -10 -101 7
-173 27 -173 48 0 31 66 37 155 14z m-211 -78 c-26 -26 -51 -47 -56 -47 -5 0
-27 -9 -50 -21 -32 -16 -42 -18 -49 -8 -18 29 77 115 159 143 33 12 37 11 40
-4 2 -9 -18 -37 -44 -63z m350 -46 l49 -49 -7 -55 -7 -55 -47 -5 c-45 -5 -48
-3 -108 49 l-61 54 8 43 c4 23 8 48 9 55 0 8 18 12 58 12 56 0 59 -2 106 -49z
m-380 -29 c4 -11 17 -29 31 -42 l24 -22 -20 -37 c-11 -20 -22 -53 -25 -73 -6
-35 -10 -38 -58 -52 l-51 -16 -27 33 c-32 37 -34 72 -10 137 26 66 122 117
136 72z m475 -49 c19 -47 31 -133 25 -174 -4 -21 -8 -39 -9 -39 -19 0 -35 17
-35 36 0 14 -7 41 -15 60 -10 25 -13 52 -9 90 7 60 25 71 43 27z m-226 -41
l57 -57 -16 -55 c-9 -30 -18 -60 -19 -66 -4 -15 -68 -44 -108 -50 -28 -4 -40
3 -91 50 -57 52 -58 54 -51 94 11 67 42 104 105 123 30 9 57 17 60 18 3 1 31
-25 63 -57z m-381 -132 c14 -19 28 -53 32 -75 4 -21 14 -52 22 -68 12 -22 13
-32 3 -43 -10 -13 -15 -12 -35 7 -48 45 -96 188 -73 216 7 7 15 10 19 6 3 -4
18 -24 32 -43z m614 -55 c14 -35 -118 -208 -146 -190 -8 5 -8 11 -1 19 6 7 17
32 26 55 13 38 89 129 108 130 4 1 10 -6 13 -14z m-153 -59 c33 -22 34 -37 5
-87 -17 -30 -32 -42 -67 -53 -66 -21 -82 -22 -117 -4 -52 28 -56 38 -35 93 17
46 22 50 65 61 26 7 57 19 69 27 20 14 23 14 37 -2 9 -10 28 -26 43 -35z
m-291 -96 c31 0 130 -74 117 -87 -14 -14 -101 2 -154 27 -57 28 -82 55 -66 74
11 13 17 13 46 0 19 -8 45 -14 57 -14z"/>
<path d="M2368 2961 c-144 -46 -159 -241 -24 -302 54 -25 92 -24 146 4 61 30
90 76 90 142 0 86 -56 148 -145 159 -22 3 -52 1 -67 -3z m75 -92 c30 -16 37
-28 37 -66 0 -90 -120 -91 -128 -1 -2 29 2 40 24 57 31 24 37 25 67 10z"/>
<path d="M2705 2955 c-112 -40 -145 -177 -64 -261 81 -84 219 -62 270 42 63
130 -68 269 -206 219z m108 -107 c9 -11 17 -31 17 -45 0 -29 -42 -73 -70 -73
-24 0 -70 42 -70 64 0 72 78 106 123 54z"/>
<path d="M2030 2805 l0 -155 50 0 50 0 0 55 0 55 45 0 45 0 0 40 0 40 -45 0
c-33 0 -45 4 -45 15 0 11 13 15 53 15 l53 0 3 45 2 45 -106 0 -105 0 0 -155z"/>
<path d="M2940 2915 c0 -45 0 -45 35 -45 l35 0 0 -110 0 -110 50 0 50 0 0 110
0 110 35 0 c35 0 35 0 35 45 l0 45 -120 0 -120 0 0 -45z"/>
<path d="M3200 2805 l0 -155 80 0 c88 0 142 16 159 48 19 35 13 77 -13 102
-22 20 -23 24 -10 37 26 26 14 74 -25 100 -28 19 -47 23 -112 23 l-79 0 0
-155z m135 55 c0 -8 -8 -16 -17 -18 -13 -2 -18 3 -18 18 0 15 5 20 18 18 9 -2
17 -10 17 -18z m4 -89 c19 -12 6 -41 -19 -41 -15 0 -20 7 -20 25 0 26 14 31
39 16z"/>
<path d="M3515 2818 c-26 -79 -50 -149 -53 -156 -3 -10 8 -12 49 -10 48 3 54
6 57 26 3 21 8 23 50 20 40 -3 47 -6 50 -25 3 -21 9 -23 58 -23 30 0 54 3 54
8 0 4 -11 36 -23 72 -13 36 -36 102 -51 148 l-28 82 -57 0 -58 0 -48 -142z
m115 8 c0 -8 3 -21 6 -30 4 -12 0 -16 -15 -16 -23 0 -24 3 -15 38 7 24 24 30
24 8z"/>
<path d="M3800 2805 l0 -155 100 0 100 0 0 45 0 45 -50 0 -50 0 0 110 0 110
-50 0 -50 0 0 -155z"/>
<path d="M4020 2805 l0 -155 95 0 95 0 0 45 0 45 -45 0 -45 0 0 110 0 110 -50
0 -50 0 0 -155z"/>
<path d="M2405 2465 c0 -61 1 -65 23 -65 12 0 22 5 22 10 0 6 -4 10 -10 10 -5
0 -7 7 -4 15 7 18 54 20 54 2 0 -7 -5 -18 -12 -25 -9 -9 -5 -12 20 -12 18 0
32 5 32 10 0 6 -4 10 -10 10 -5 0 -10 20 -10 45 0 25 5 45 10 45 6 0 10 5 10
10 0 6 -14 10 -31 10 -27 0 -30 -2 -19 -15 7 -8 10 -22 6 -30 -8 -22 -43 -18
-49 5 -3 11 -1 20 4 20 5 0 9 5 9 10 0 6 -10 10 -22 10 -22 0 -23 -4 -23 -65z"/>
<path d="M2580 2515 c8 -10 11 -33 8 -65 -5 -47 -4 -50 18 -50 13 0 24 5 24
10 0 6 -4 10 -8 10 -5 0 -8 20 -8 45 0 25 3 45 8 45 4 0 8 5 8 10 0 6 -14 10
-31 10 -27 0 -30 -2 -19 -15z"/>
<path d="M2686 2508 c-20 -29 -20 -58 0 -86 12 -18 24 -22 52 -20 33 3 37 6
40 35 3 27 0 31 -16 26 -14 -3 -18 -11 -14 -25 4 -16 1 -19 -19 -16 -44 6 -38
88 6 88 14 0 25 -4 25 -10 0 -5 5 -10 10 -10 16 0 11 27 -6 34 -31 12 -63 6
-78 -16z"/>
<path d="M2835 2465 c0 -61 1 -65 23 -65 19 0 21 4 16 25 -5 22 -3 25 21 25
24 0 26 -3 21 -25 -5 -21 -3 -25 16 -25 22 0 23 4 23 65 0 61 -2 65 -22 65
-20 0 -22 -4 -16 -30 5 -28 3 -30 -22 -30 -25 0 -27 2 -21 30 5 26 3 30 -17
30 -20 0 -22 -4 -22 -65z"/>
<path d="M3015 2465 l0 -65 48 0 c40 0 47 3 47 20 0 11 -4 20 -10 20 -5 0 -10
-4 -10 -10 0 -5 -10 -10 -21 -10 -20 0 -21 4 -17 55 4 51 3 55 -16 55 -19 0
-21 -6 -21 -65z"/>
<path d="M3158 2518 c14 -14 16 -98 2 -98 -5 0 -10 -4 -10 -10 0 -5 14 -10 32
-10 25 0 29 3 20 12 -16 16 -16 90 0 106 9 9 4 12 -22 12 -26 0 -31 -3 -22
-12z"/>
<path d="M3266 2508 c-43 -61 9 -129 78 -102 9 3 16 17 16 30 0 20 -5 24 -27
23 -16 0 -22 -3 -15 -6 20 -8 14 -33 -8 -33 -37 0 -47 74 -12 87 8 4 23 1 34
-6 25 -15 35 -7 18 14 -19 23 -66 19 -84 -7z"/>
<path d="M3415 2465 c0 -61 1 -65 23 -65 19 0 21 4 16 25 -5 22 -3 25 21 25
24 0 26 -3 21 -25 -5 -21 -3 -25 16 -25 22 0 23 4 23 65 0 61 -2 65 -22 65
-20 0 -22 -4 -16 -30 5 -28 3 -30 -22 -30 -25 0 -27 2 -21 30 5 26 3 30 -17
30 -20 0 -22 -4 -22 -65z"/>
<path d="M3590 2514 c0 -11 6 -14 21 -9 21 7 21 5 17 -49 -4 -52 -3 -56 17
-56 20 0 21 4 17 56 -4 54 -4 56 17 49 15 -5 21 -2 21 9 0 13 -12 16 -55 16
-43 0 -55 -3 -55 -16z"/>
<path d="M3762 2518 c-20 -20 -14 -38 23 -59 41 -25 45 -39 10 -39 -14 0 -25
5 -25 10 0 6 -4 10 -10 10 -5 0 -10 -6 -10 -14 0 -29 74 -36 89 -8 12 23 -2
48 -34 56 -14 4 -25 13 -25 21 0 18 37 20 43 3 2 -7 8 -10 12 -6 4 4 5 14 2
23 -8 18 -58 20 -75 3z"/>
<path d="M3767 2323 c-1 -1 -189 -4 -417 -7 -228 -4 -467 -9 -530 -11 -63 -2
-182 -7 -265 -10 -459 -16 -712 -28 -723 -34 -24 -14 215 -19 953 -22 794 -3
1090 -5 1180 -9 92 -4 101 -2 113 25 16 34 17 32 -20 52 -26 13 -60 17 -161
18 -71 0 -129 -1 -130 -2z"/>
<path d="M875 2224 c-32 -34 -36 -104 -7 -104 40 0 82 73 62 110 -14 27 -26
25 -55 -6z"/>
</g>
</svg>
